# xmcd
#
# Track frame offsets:
#	150
#	10967
#	24335
#	37232
#	49182
#	64100
#	78325
#	91285
#	106462
#	116370
#	129442
#	143505
#
# Disc length: 2084
#
# Revision: 5
# Processed by: cddbd v1.5.1PL0 Copyright (c) Steve Scherf et al.
# Submitted via: Grip 2.5
# Normalized: r3:DSETVAR1,TDELIM( - ),TSWAP
#
DISCID=9608220c
DTITLE=Various Artist - The BluesCollection Volume 4
DYEAR=1900
DGENRE=
TTITLE0=Billy Stewart - Billy's Blues part 2
TTITLE1=LittleWalter - Last Night
TTITLE2=Lowell Fulson - Trouble, Trouble
TTITLE3=Larry Williams - May Baby's Got Soul
TTITLE4=Ediie Boyd - Third Degree
TTITLE5=Willie Mabo and his Combo - I Don't Know
TTITLE6=Betty James - I'm a Little Mixed up
TTITLE7=Muddy Waters - She's 19 Years Old
TTITLE8=T.V. Slim - Flat Foot Sam
TTITLE9=Little Walter - Boom Boom
TTITLE10=Memphis Slim and The House Rockers - I Guess I'm a Fool
TTITLE11=John Lee Hooker - Leave My Wife Alone
EXTD=
EXTT0=
EXTT1=
EXTT2=
EXTT3=
EXTT4=
EXTT5=
EXTT6=
EXTT7=
EXTT8=
EXTT9=
EXTT10=
EXTT11=
PLAYORDER=
